<svg width="35" height="35" viewBox="0 0 35 35" fill="none" xmlns="http://www.w3.org/2000/svg">
<g id="add-plus-icon 1" clip-path="url(#clip0_71_167)">
<path id="Vector" fill-rule="evenodd" clip-rule="evenodd" d="M17.5 0C20.9612 0 24.3446 1.02636 27.2225 2.94928C30.1003 4.87221 32.3434 7.60533 33.6679 10.803C34.9924 14.0007 35.339 17.5194 34.6637 20.9141C33.9885 24.3087 32.3218 27.427 29.8744 29.8744C27.427 32.3218 24.3087 33.9885 20.9141 34.6637C17.5194 35.339 14.0007 34.9924 10.803 33.6679C7.60533 32.3434 4.87221 30.1003 2.94928 27.2225C1.02636 24.3446 0 20.9612 0 17.5C0 12.8587 1.84374 8.40752 5.12563 5.12563C8.40752 1.84374 12.8587 0 17.5 0ZM26.7143 15.7255V19.2716C26.7135 19.6204 26.5746 19.9547 26.328 20.2013C26.0814 20.4479 25.7471 20.5868 25.3984 20.5876H20.5876V25.3984C20.5868 25.7471 20.4479 26.0814 20.2013 26.328C19.9547 26.5746 19.6204 26.7135 19.2716 26.7143H15.7255C15.3772 26.7128 15.0437 26.5736 14.7977 26.327C14.5517 26.0805 14.4132 25.7466 14.4124 25.3984V20.5876H9.5988C9.25052 20.5861 8.91698 20.4468 8.67097 20.2003C8.42497 19.9538 8.28647 19.6199 8.28573 19.2716V15.7255C8.28722 15.3777 8.42605 15.0446 8.67197 14.7987C8.9179 14.5528 9.25101 14.4139 9.5988 14.4124H14.4124V9.5988C14.4139 9.25101 14.5528 8.9179 14.7987 8.67197C15.0446 8.42605 15.3777 8.28722 15.7255 8.28573H19.2716C19.6199 8.28647 19.9538 8.42497 20.2003 8.67097C20.4468 8.91698 20.5861 9.25052 20.5876 9.5988V14.4124H25.3984C25.7466 14.4132 26.0805 14.5517 26.327 14.7977C26.5736 15.0437 26.7128 15.3772 26.7143 15.7255Z" fill="url(#paint0_linear_71_167)"/>
</g>
<defs>
<linearGradient id="paint0_linear_71_167" x1="17.5" y1="0" x2="17.5" y2="35" gradientUnits="userSpaceOnUse">
<stop stop-color="#5257D0"/>
<stop offset="1" stop-color="#BD00FF"/>
</linearGradient>
<clipPath id="clip0_71_167">
<rect width="35" height="35" fill="white"/>
</clipPath>
</defs>
</svg>
